<svg width="174" height="150" viewBox="0 0 174 150" fill="none" xmlns="http://www.w3.org/2000/svg"><path d="M173.5 150L87 0L32.5 95H55L87 40.5L139 130H11.5L0 150H173.5Z" fill="#0089FF"/><path d="M23.25 119.11V108.19C23.25 104.93 24.88 103.3 28.14 103.3H36.93L38.7 104.68V106.63H28.23C27.35 106.63 26.91 107.06 26.91 107.92V119.38C26.91 120.24 27.35 120.67 28.23 120.67H35.64V114.94H31.26V111.61H39.3V124H28.14C24.88 124 23.25 122.37 23.25 119.11ZM43.2541 119.26V112.99C43.2541 109.83 44.8341 108.25 47.9941 108.25H51.8941C55.0341 108.25 56.6041 109.83 56.6041 112.99V117.43H46.7641V119.56C46.7641 120.48 47.2241 120.94 48.1441 120.94H56.0041V122.83L54.4141 124H47.9941C44.8341 124 43.2541 122.42 43.2541 119.26ZM46.7641 114.7H53.0941V112.69C53.0941 111.77 52.6341 111.31 51.7141 111.31H48.1441C47.2241 111.31 46.7641 111.77 46.7641 112.69V114.7ZM60.8672 124V108.25H69.5072C72.6472 108.25 74.2172 109.83 74.2172 112.99V124H70.7072V112.69C70.7072 111.77 70.2472 111.31 69.3272 111.31H64.3772V124H60.8672ZM76.9118 123.28L83.3018 103.3H89.0018L95.3618 123.28L94.9118 124H91.8218L90.4118 119.44H81.8618L80.4218 124H77.3918L76.9118 123.28ZM82.8818 116.11H89.4218L86.4218 106.63H85.8518L82.8818 116.11ZM98.4914 124V103.3H108.451C111.711 103.3 113.341 104.93 113.341 108.19V112.18C113.341 115.42 111.711 117.04 108.451 117.04H102.151V124H98.4914ZM102.151 113.71H108.361C109.241 113.71 109.681 113.27 109.681 112.39V107.92C109.681 107.06 109.241 106.63 108.361 106.63H102.151V113.71ZM117.534 124V103.3H121.194V124H117.534Z" fill="#0089ff"/></svg>