<svg xmlns="http://www.w3.org/2000/svg" name="ai" viewBox="0 0 24 24">
    <!-- GigaChat (Сбер) - круг с буквой G -->
    <symbol id="gigachat">
		<path d="M893.4425049,374.6480103c-23.168457-73.6956787-67.3317261-140.4063416-126.6998291-189.7776031
			c-30.1660767-23.601944-69.263916-33.2353058-106.6690674-34.9211273c-6.9996338,0-14.7218018,0-21.4799805,0
			c-102.3239136,5.0574646-198.1331787,53.2246857-278.9812622,113.6742554c-0.7224731,0.4815674-0.7224731,1.4449158,0,2.1674194
			c33.3056641,36.6062927,64.6771851,75.1405945,95.0847778,114.3973389
			c0.4830017,0.7224426,1.4490662,0.7224426,1.9320679,0.2394409
			c65.1602173-46.7208557,133.2165527-89.8308105,206.3404541-123.547699c0.7224731-0.2408752,1.4470215,0,1.9299927,0.7226562
			c23.168457,45.0361023-54.059021,118.0092773-85.6741333,144.2595825
			C508.514679,459.6636963,427.427124,516.0180664,333.7914124,523.4842529
			c-17.1348267,1.4449463-34.5111694-0.7224731-50.9225159-4.8157349
			c-43.1987152-11.0785217-77.2264557-47.6868896-90.9826202-89.3504639
			c-6.7573242-21.4345703-6.7575378-44.555542-2.6547546-66.4710388
			c7.7225494-39.7377014,27.7532349-78.0300293,55.5066528-111.7469025
			c62.9887238-83.08815,175.691391-138.4802399,304.5628052-138.4802399s99.1884155,8.6700058,142.8687134,24.0835114
			c0.4830322-1.2042542,0.4830322-0.7224731,1.2075806-2.6491852
			c-54.3005981-28.4185715-115.5987549-44.3136673-176.6553345-46.722023c-13.2748413,0-26.7890625-0.481636-39.5787964,0.4817047
			C258.4943237,99.1331253,79.907608,286.7436829,87.3889465,506.3845215v0.4830017v0.480957
			c0,2.1673889,0.0002289,4.3348389,0.2415695,6.5022278c0,1.4448853,0,3.1313477,0,4.3347778
			c0,3.3728638,0.4827805,6.9852295,0.7241135,10.3560791c0,0.7224121-0.000351,1.6864014,0.2409821,2.4088745
			c0,0.7224731-0.0001221,1.6864014,0.4825439,2.4089355c0,0,0,0.2393799,0,0.480896
			c6.2746658,110.062561,65.8843231,204.7097168,180.7589111,221.8094482
			c27.2716675,3.6123657,54.7831726,3.3708496,82.0531311,1.9259033
			c146.4892883-10.595459,299.7367554-87.9034424,392.4085083-201.8198242
			c41.5087891-52.5005798,72.1578369-116.3232422,76.0198975-183.756134
			c0.4830933-4.5763245,0.2415161-9.1526489,0.4830933-13.4874268c0,0,0-0.2415161,0-0.480957c0-0.4830017,0.480957,0,0.7224731,0
			c0.7244873,0.7224426,1.6904907,1.4449463,2.4129639,2.1673889
			c46.8199463,51.5386658,75.7805176,117.5266724,82.5366211,186.6459961c1.9321289,0,1.4490967,0,3.3790894,0
			c6.9996338-58.0408325,1.6884766-117.5266113-15.9272461-173.4000854L893.4425049,374.6480103z"/>
		<path  d="M468.4591064,858.1181641c-105.2199707,0-202.4779358-32.5130615-281.635437-87.9035034
			c75.7788544,87.4225464,187.758194,142.5735474,312.526001,142.5735474
			c194.5147095,0,357.6558228-134.3869629,401.5796509-315.0117188
			C822.2548218,751.9094849,658.1477051,858.1181641,468.4591064,858.1181641z"/>
    </symbol>

    <!-- DeepSeek - официальный логотип кита -->
    <symbol id="deepseek">
        <path d="m27.501 8.469c-.252-.123-.36.111-.508.23-.05.04-.093.09-.135.135-.368.395-.797.652-1.358.621-.821-.045-1.521.213-2.14.842-.132-.776-.57-1.238-1.235-1.535-.349-.155-.701-.309-.944-.645-.171-.238-.217-.504-.303-.765-.054-.159-.108-.32-.29-.348-.197-.031-.274.135-.352.273-.31.567-.43 1.192-.419 1.825.028 1.421.628 2.554 1.82 3.36.136.093.17.186.128.321-.081.278-.178.547-.264.824-.054.178-.135.217-.324.14a5.448 5.448 0 0 1 -1.719-1.169c-.848-.82-1.614-1.726-2.57-2.435-.225-.166-.449-.32-.681-.467-.976-.95.128-1.729.383-1.82.267-.096.093-.428-.77-.424s-1.653.293-2.659.677a2.782 2.782 0 0 1 -.46.135 9.554 9.554 0 0 0 -2.853-.1c-1.866.21-3.356 1.092-4.452 2.6-1.315 1.81-1.625 3.87-1.246 6.018.399 2.261 1.552 4.136 3.326 5.601 1.837 1.518 3.955 2.262 6.37 2.12 1.466-.085 3.1-.282 4.942-1.842.465.23.952.322 1.762.392.623.059 1.223-.031 1.687-.127.728-.154.677-.828.414-.953-2.132-.994-1.665-.59-2.09-.916 1.084-1.285 2.717-2.619 3.356-6.94.05-.343.007-.558 0-.837-.004-.168.034-.235.228-.254a4.084 4.084 0 0 0 1.529-.47c1.382-.757 1.938-1.997 2.07-3.485.02-.227-.004-.463-.243-.582zm-12.041 13.391c-2.067-1.627-3.07-2.162-3.483-2.138-.387.021-.318.465-.233.754.089.285.205.482.368.732.113.166.19.414-.112.598-.666.414-1.823-.139-1.878-.166-1.347-.793-2.473-1.842-3.267-3.276-.765-1.38-1.21-2.861-1.284-4.441-.02-.383.093-.518.472-.586a4.692 4.692 0 0 1 1.514-.04c2.109.31 3.905 1.255 5.41 2.749.86.853 1.51 1.871 2.18 2.865.711 1.057 1.478 2.063 2.454 2.887.343.289.619.51.881.672-.792.088-2.117.107-3.022-.61zm.99-6.38a.304.304 0 1 1 .609 0c0 .17-.136.304-.306.304a.3.3 0 0 1 -.303-.305zm3.077 1.581c-.197.08-.394.15-.584.159a1.246 1.246 0 0 1 -.79-.252c-.27-.227-.463-.354-.546-.752a1.752 1.752 0 0 1 .016-.582c.07-.324-.008-.531-.235-.72-.187-.155-.422-.196-.682-.196a.551.551 0 0 1 -.252-.078c-.108-.055-.197-.19-.112-.356.027-.053.159-.183.19-.207.352-.201.758-.135 1.134.016.349.142.611.404.99.773.388.448.457.573.678.906.174.264.333.534.441.842.066.192-.02.35-.248.448z"/>
    </symbol>

    <!-- ChatGPT (OpenAI) - официальный логотип -->
    <symbol id="chatgpt">
        <path d="M22.282 9.821a5.985 5.985 0 0 0-.516-4.91 6.046 6.046 0 0 0-6.51-2.9A6.065 6.065 0 0 0 4.981 4.18a5.985 5.985 0 0 0-3.998 2.9 6.046 6.046 0 0 0 .743 7.097 5.98 5.98 0 0 0 .51 4.911 6.051 6.051 0 0 0 6.515 2.9A5.985 5.985 0 0 0 13.26 24a6.056 6.056 0 0 0 5.772-4.206 5.99 5.99 0 0 0 3.997-2.9 6.056 6.056 0 0 0-.747-7.073zM13.26 22.43a4.476 4.476 0 0 1-2.876-1.04l.141-.081 4.779-2.758a.795.795 0 0 0 .392-.681v-6.737l2.02 1.168a.071.071 0 0 1 .038.052v5.583a4.504 4.504 0 0 1-4.494 4.494zM3.6 18.304a4.47 4.47 0 0 1-.535-3.014l.142.085 4.783 2.759a.771.771 0 0 0 .78 0l5.843-3.369v2.332a.08.08 0 0 1-.033.062L9.74 19.95a4.5 4.5 0 0 1-6.14-1.646zM2.34 7.896a4.485 4.485 0 0 1 2.366-1.973V11.6a.766.766 0 0 0 .388.676l5.815 3.355-2.02 1.168a.076.076 0 0 1-.071 0l-4.83-2.786A4.504 4.504 0 0 1 2.34 7.872zm16.597 3.855l-5.833-3.387L15.119 7.2a.076.076 0 0 1 .071 0l4.83 2.791a4.494 4.494 0 0 1-.676 8.105v-5.678a.79.79 0 0 0-.407-.667zm2.01-3.023l-.141-.085-4.774-2.782a.776.776 0 0 0-.785 0L9.409 9.23V6.897a.066.066 0 0 1 .028-.061l4.83-2.787a4.5 4.5 0 0 1 6.68 4.66zm-12.64 4.135l-2.02-1.164a.08.08 0 0 1-.038-.057V6.075a4.5 4.5 0 0 1 7.375-3.453l-.142.08L8.704 5.46a.795.795 0 0 0-.393.681zm1.097-2.365l2.602-1.5 2.607 1.5v2.999l-2.597 1.5-2.607-1.5z"/>
    </symbol>

    <!-- Claude (Anthropic) - градиентная волна -->
    <symbol id="claude">
        <path d="M17.5 2h-11L2 12l4.5 10h11L22 12 17.5 2zm-9 18L4 12l4.5-8h7L20 12l-4.5 8h-7z"/>
    </symbol>

    <!-- Gemini (Google) - звезда/искра -->
    <symbol id="gemini">
        <path d="M12 2l2.5 7.5H22l-6 4.5 2.5 7.5L12 17l-6.5 4.5L8 14 2 9.5h7.5L12 2z"/>
    </symbol>

    <!-- LLaMA (Meta) - лама/альпака силуэт -->
    <symbol id="llama">
        <path d="M12 2c-1 0-2 .5-2.5 1.5L8 6H6c-1 0-2 1-2 2v8c0 1 1 2 2 2h2l1.5 2.5c.5 1 1.5 1.5 2.5 1.5s2-.5 2.5-1.5L18 18h2c1 0 2-1 2-2V8c0-1-1-2-2-2h-2l-1.5-2.5C16 2.5 15 2 14 2h-2zm0 2h2l1.5 2.5c.3.5.7.5 1 .5h2v8h-2c-.3 0-.7 0-1 .5L14 18h-2l-1.5-2.5c-.3-.5-.7-.5-1-.5H6V7h2c.3 0 .7 0 1-.5L10 4h2zm-2 5c-.55 0-1 .45-1 1s.45 1 1 1 1-.45 1-1-.45-1-1-1zm4 0c-.55 0-1 .45-1 1s.45 1 1 1 1-.45 1-1-.45-1-1-1z"/>
    </symbol>

    <!-- Mistral AI - вихрь/ветер -->
    <symbol id="mistral">
        <path d="M2 6h8v2H2V6zm0 4h12v2H2v-2zm0 4h16v2H2v-2zm0 4h20v2H2v-2z"/>
    </symbol>

    <!-- Perplexity - бесконечность/вопрос -->
    <symbol id="perplexity">
        <path d="M12 2C6.48 2 2 6.48 2 12s4.48 10 10 10 10-4.48 10-10S17.52 2 12 2zm0 18c-4.41 0-8-3.59-8-8s3.59-8 8-8 8 3.59 8 8-3.59 8-8 8zm-1-13h2v6h-2V7zm0 8h2v2h-2v-2z"/>
    </symbol>

    <!-- Grok (xAI) - молния/энергия -->
    <symbol id="grok">
        <path d="M7 2v11h3v9l7-12h-4l4-8H7z"/>
    </symbol>

    <!-- Copilot (Microsoft) - два круга/пилот -->
    <symbol id="copilot">
        <path d="M9 2C5.69 2 3 4.69 3 8s2.69 6 6 6c1.01 0 1.97-.25 2.8-.7L14 16l2.8-2.7c.83.45 1.79.7 2.8.7 3.31 0 6-2.69 6-6s-2.69-6-6-6c-1.01 0-1.97.25-2.8.7L14 0l-2.8 2.7C10.37 2.25 9.41 2 9 2zm0 2c2.21 0 4 1.79 4 4s-1.79 4-4 4-4-1.79-4-4 1.79-4 4-4zm10 0c2.21 0 4 1.79 4 4s-1.79 4-4 4-4-1.79-4-4 1.79-4 4-4zM9 5c-.55 0-1 .45-1 1s.45 1 1 1 1-.45 1-1-.45-1-1-1zm10 0c-.55 0-1 .45-1 1s.45 1 1 1 1-.45 1-1-.45-1-1-1z"/>
    </symbol>

    <!-- Cohere - спираль/когерентность -->
    <symbol id="cohere">
        <path d="M12 2C6.48 2 2 6.48 2 12s4.48 10 10 10 10-4.48 10-10S17.52 2 12 2zm0 2c4.41 0 8 3.59 8 8 0 1.85-.63 3.55-1.69 4.9l-2.83-2.83C15.78 13.42 16 12.74 16 12c0-2.21-1.79-4-4-4s-4 1.79-4 4c0 .74.22 1.42.58 2.07L5.69 16.9C4.63 15.55 4 13.85 4 12c0-4.41 3.59-8 8-8zm0 6c1.1 0 2 .9 2 2s-.9 2-2 2-2-.9-2-2 .9-2 2-2z"/>
    </symbol>

    <!-- Bard (Google) - лира/бард -->
    <symbol id="bard">
        <path d="M12 2l2.5 7.5H22l-6 4.5 2.5 7.5L12 17l-6.5 4.5L8 14 2 9.5h7.5L12 2z"/>
    </symbol>

    <!-- PaLM (Google) - пальма -->
    <symbol id="palm">
        <path d="M12 2L8 8h3v6H9l-2 6h10l-2-6h-2V8h3l-4-6zm0 3l1.5 2.5h-3L12 5zm-3 5.5h6v5h-6v-5z"/>
    </symbol>

    <!-- Falcon - сокол -->
    <symbol id="falcon">
        <path d="M12 2L6 8v6l6 8 6-8V8l-6-6zm0 3l3 3v4l-3 5-3-5V8l3-3z"/>
    </symbol>

    <!-- Vicuna - викунья (родственник ламы) -->
    <symbol id="vicuna">
        <path d="M8 2v4H6v2h2v2H6v2h2v2H6v2h2v4h2v-4h4v4h2v-4h2v-2h-2v-2h2v-2h-2V8h2V6h-2V2h-2v4h-4V2H8zm2 6h4v2h-4V8zm0 4h4v2h-4v-2z"/>
    </symbol>

    <!-- Alpaca - альпака -->
    <symbol id="alpaca">
        <path d="M12 2c-1 0-2 .5-2.5 1.5L8 6H6c-1 0-2 1-2 2v6c0 1 1 2 2 2h2l1.5 2.5c.5 1 1.5 1.5 2.5 1.5s2-.5 2.5-1.5L18 16h2c1 0 2-1 2-2V8c0-1-1-2-2-2h-2l-1.5-2.5C16 2.5 15 2 14 2h-2zm-2 5c.55 0 1 .45 1 1s-.45 1-1 1-1-.45-1-1 .45-1 1-1zm4 0c.55 0 1 .45 1 1s-.45 1-1 1-1-.45-1-1 .45-1 1-1zm-2 5c1.1 0 2 .9 2 2h-4c0-1.1.9-2 2-2z"/>
    </symbol>

    <!-- Pi (Inflection AI) - символ π -->
    <symbol id="pi">
        <path d="M6 6v2h2v10h2V8h4v10h2V8h2V6H6z"/>
    </symbol>

    <!-- Qwen (Alibaba) - облако -->
    <symbol id="qwen">
        <path d="M19.35 10.04C18.67 6.59 15.64 4 12 4c-2.5 0-4.67 1.33-5.89 3.32C3.24 7.9 1 10.35 1 13.28 1 16.65 3.69 19.5 7 19.5h11.5c2.76 0 5-2.24 5-5 0-2.64-2.05-4.78-4.65-4.96zM18.5 17.5H7c-2.21 0-4-1.79-4-4 0-2.05 1.53-3.76 3.56-3.97l1.07-.11.5-.95C9.08 7.14 10.43 6 12 6c2.62 0 4.88 1.86 5.39 4.43l.3 1.5 1.53.11c1.56.1 2.78 1.41 2.78 2.96 0 1.65-1.35 3-3 3z"/>
    </symbol>

    <!-- Ernie (Baidu) - робот -->
    <symbol id="ernie">
        <path d="M12 2C6.48 2 2 6.48 2 12s4.48 10 10 10 10-4.48 10-10S17.52 2 12 2zm0 3c1.66 0 3 1.34 3 3s-1.34 3-3 3-3-1.34-3-3 1.34-3 3-3zm0 14.2c-2.5 0-4.71-1.28-6-3.22.03-1.99 4-3.08 6-3.08 1.99 0 5.97 1.09 6 3.08-1.29 1.94-3.5 3.22-6 3.22z"/>
    </symbol>

    <!-- Llama2 - улучшенная лама -->
    <symbol id="llama2">
        <path d="M12 2c-1 0-2 .5-2.5 1.5L8 6H6c-1 0-2 1-2 2v8c0 1 1 2 2 2h2l1.5 2.5c.5 1 1.5 1.5 2.5 1.5s2-.5 2.5-1.5L18 18h2c1 0 2-1 2-2V8c0-1-1-2-2-2h-2l-1.5-2.5C16 2.5 15 2 14 2h-2zm0 2h2l1.5 2.5c.3.5.7.5 1 .5h2v8h-2c-.3 0-.7 0-1 .5L14 18h-2l-1.5-2.5c-.3-.5-.7-.5-1-.5H6V7h2c.3 0 .7 0 1-.5L10 4h2zm-2 5c-.55 0-1 .45-1 1s.45 1 1 1 1-.45 1-1-.45-1-1-1zm4 0c-.55 0-1 .45-1 1s.45 1 1 1 1-.45 1-1-.45-1-1-1zm-2 4c1.1 0 2 .9 2 2h-4c0-1.1.9-2 2-2z"/>
    </symbol>

    <!-- Llama3 - новейшая лама -->
    <symbol id="llama3">
        <path d="M12 2c-1 0-2 .5-2.5 1.5L8 6H6c-1 0-2 1-2 2v8c0 1 1 2 2 2h2l1.5 2.5c.5 1 1.5 1.5 2.5 1.5s2-.5 2.5-1.5L18 18h2c1 0 2-1 2-2V8c0-1-1-2-2-2h-2l-1.5-2.5C16 2.5 15 2 14 2h-2zm0 2h2l1.5 2.5c.3.5.7.5 1 .5h2v8h-2c-.3 0-.7 0-1 .5L14 18h-2l-1.5-2.5c-.3-.5-.7-.5-1-.5H6V7h2c.3 0 .7 0 1-.5L10 4h2zm-3 4v1h1v1h-1v1h1v1h-1v1h2v-1h1v1h2v-5h-2v1h-1V8h-1v1H9zm1 1h1v1h-1V9zm2 0h1v1h-1V9z"/>
    </symbol>

    <!-- GPT-4 - OpenAI 4 -->
    <symbol id="gpt4">
        <path d="M22.282 9.821a5.985 5.985 0 0 0-.516-4.91 6.046 6.046 0 0 0-6.51-2.9A6.065 6.065 0 0 0 4.981 4.18a5.985 5.985 0 0 0-3.998 2.9 6.046 6.046 0 0 0 .743 7.097 5.98 5.98 0 0 0 .51 4.911 6.051 6.051 0 0 0 6.515 2.9A5.985 5.985 0 0 0 13.26 24a6.056 6.056 0 0 0 5.772-4.206 5.99 5.99 0 0 0 3.997-2.9 6.056 6.056 0 0 0-.747-7.073zM13.26 22.43a4.476 4.476 0 0 1-2.876-1.04l.141-.081 4.779-2.758a.795.795 0 0 0 .392-.681v-6.737l2.02 1.168a.071.071 0 0 1 .038.052v5.583a4.504 4.504 0 0 1-4.494 4.494zM3.6 18.304a4.47 4.47 0 0 1-.535-3.014l.142.085 4.783 2.759a.771.771 0 0 0 .78 0l5.843-3.369v2.332a.08.08 0 0 1-.033.062L9.74 19.95a4.5 4.5 0 0 1-6.14-1.646zM2.34 7.896a4.485 4.485 0 0 1 2.366-1.973V11.6a.766.766 0 0 0 .388.676l5.815 3.355-2.02 1.168a.076.076 0 0 1-.071 0l-4.83-2.786A4.504 4.504 0 0 1 2.34 7.872zm16.597 3.855l-5.833-3.387L15.119 7.2a.076.076 0 0 1 .071 0l4.83 2.791a4.494 4.494 0 0 1-.676 8.105v-5.678a.79.79 0 0 0-.407-.667zm2.01-3.023l-.141-.085-4.774-2.782a.776.776 0 0 0-.785 0L9.409 9.23V6.897a.066.066 0 0 1 .028-.061l4.83-2.787a4.5 4.5 0 0 1 6.68 4.66zm-12.64 4.135l-2.02-1.164a.08.08 0 0 1-.038-.057V6.075a4.5 4.5 0 0 1 7.375-3.453l-.142.08L8.704 5.46a.795.795 0 0 0-.393.681zm1.097-2.365l2.602-1.5 2.607 1.5v2.999l-2.597 1.5-2.607-1.5z"/>
    </symbol>

    <!-- GPT-3.5 - OpenAI 3.5 -->
    <symbol id="gpt3">
        <path d="M22.282 9.821a5.985 5.985 0 0 0-.516-4.91 6.046 6.046 0 0 0-6.51-2.9A6.065 6.065 0 0 0 4.981 4.18a5.985 5.985 0 0 0-3.998 2.9 6.046 6.046 0 0 0 .743 7.097 5.98 5.98 0 0 0 .51 4.911 6.051 6.051 0 0 0 6.515 2.9A5.985 5.985 0 0 0 13.26 24a6.056 6.056 0 0 0 5.772-4.206 5.99 5.99 0 0 0 3.997-2.9 6.056 6.056 0 0 0-.747-7.073zM13.26 22.43a4.476 4.476 0 0 1-2.876-1.04l.141-.081 4.779-2.758a.795.795 0 0 0 .392-.681v-6.737l2.02 1.168a.071.071 0 0 1 .038.052v5.583a4.504 4.504 0 0 1-4.494 4.494zM3.6 18.304a4.47 4.47 0 0 1-.535-3.014l.142.085 4.783 2.759a.771.771 0 0 0 .78 0l5.843-3.369v2.332a.08.08 0 0 1-.033.062L9.74 19.95a4.5 4.5 0 0 1-6.14-1.646zM2.34 7.896a4.485 4.485 0 0 1 2.366-1.973V11.6a.766.766 0 0 0 .388.676l5.815 3.355-2.02 1.168a.076.076 0 0 1-.071 0l-4.83-2.786A4.504 4.504 0 0 1 2.34 7.872zm16.597 3.855l-5.833-3.387L15.119 7.2a.076.076 0 0 1 .071 0l4.83 2.791a4.494 4.494 0 0 1-.676 8.105v-5.678a.79.79 0 0 0-.407-.667zm2.01-3.023l-.141-.085-4.774-2.782a.776.776 0 0 0-.785 0L9.409 9.23V6.897a.066.066 0 0 1 .028-.061l4.83-2.787a4.5 4.5 0 0 1 6.68 4.66zm-12.64 4.135l-2.02-1.164a.08.08 0 0 1-.038-.057V6.075a4.5 4.5 0 0 1 7.375-3.453l-.142.08L8.704 5.46a.795.795 0 0 0-.393.681zm1.097-2.365l2.602-1.5 2.607 1.5v2.999l-2.597 1.5-2.607-1.5z"/>
    </symbol>

    <!-- Command (Cohere) - команда -->
    <symbol id="command">
        <path d="M12 2L2 7v10l10 5 10-5V7L12 2zm0 2.18L19.82 8 12 11.82 4.18 8 12 4.18zM4 9.47l7 3.5v7.86l-7-3.5V9.47zm16 0v7.86l-7 3.5v-7.86l7-3.5z"/>
    </symbol>

    <!-- Stable Diffusion - волны стабильности -->
    <symbol id="stablediffusion">
        <path d="M2 8c2 0 2-2 4-2s2 2 4 2 2-2 4-2 2 2 4 2 2-2 4-2v2c-2 0-2 2-4 2s-2-2-4-2-2 2-4 2-2-2-4-2-2 2-4 2V8zm0 4c2 0 2-2 4-2s2 2 4 2 2-2 4-2 2 2 4 2 2-2 4-2v2c-2 0-2 2-4 2s-2-2-4-2-2 2-4 2-2-2-4-2-2 2-4 2v-2zm0 4c2 0 2-2 4-2s2 2 4 2 2-2 4-2 2 2 4 2 2-2 4-2v2c-2 0-2 2-4 2s-2-2-4-2-2 2-4 2-2-2-4-2-2 2-4 2v-2z"/>
    </symbol>

    <!-- Midjourney - путешествие/дорога -->
    <symbol id="midjourney">
        <path d="M4 4v16h16V4H4zm2 2h12v12H6V6zm2 2v8h8V8H8zm2 2h4v4h-4v-4z"/>
    </symbol>

    <!-- DALL-E - палитра художника -->
    <symbol id="dalle">
        <path d="M12 2C6.48 2 2 6.48 2 12s4.48 10 10 10 10-4.48 10-10S17.52 2 12 2zm0 18c-4.41 0-8-3.59-8-8s3.59-8 8-8 8 3.59 8 8-3.59 8-8 8zm-4-8c0-2.21 1.79-4 4-4s4 1.79 4 4-1.79 4-4 4-4-1.79-4-4zm2 0c0 1.1.9 2 2 2s2-.9 2-2-.9-2-2-2-2 .9-2 2z"/>
    </symbol>

    <!-- Hugging Face - обнимающееся лицо -->
    <symbol id="huggingface">
        <path d="M12 2C6.48 2 2 6.48 2 12s4.48 10 10 10 10-4.48 10-10S17.52 2 12 2zm0 18c-4.41 0-8-3.59-8-8s3.59-8 8-8 8 3.59 8 8-3.59 8-8 8zM8 10c0-.55.45-1 1-1s1 .45 1 1-.45 1-1 1-1-.45-1-1zm6 0c0-.55.45-1 1-1s1 .45 1 1-.45 1-1 1-1-.45-1-1zm-2 6c-2.33 0-4.32-1.45-5.12-3.5h1.67c.69 1.19 1.97 2 3.45 2s2.75-.81 3.45-2h1.67c-.8 2.05-2.79 3.5-5.12 3.5z"/>
    </symbol>

    <!-- Jasper - драгоценный камень -->
    <symbol id="jasper">
        <path d="M12 2L2 12l10 10 10-10L12 2zm0 3.83L18.17 12 12 18.17 5.83 12 12 5.83z"/>
    </symbol>

    <!-- Runway - взлетная полоса -->
    <symbol id="runway">
        <path d="M2 4v16h20V4H2zm2 2h16v12H4V6zm2 2v2h2V8H6zm4 0v2h4V8h-4zm6 0v2h2V8h-2zM6 12v2h2v-2H6zm4 0v2h4v-2h-4zm6 0v2h2v-2h-2z"/>
    </symbol>

    <!-- YouChat (You.com) - чат с Y -->
    <symbol id="youchat">
        <path d="M12 2L8 8v6h2V9l2-3 2 3v5h2V8l-4-6zm-6 8v10h12V10h-2v8H8v-8H6z"/>
    </symbol>

    <!-- Character.AI - персонаж -->
    <symbol id="characterai">
        <path d="M12 2C6.48 2 2 6.48 2 12s4.48 10 10 10 10-4.48 10-10S17.52 2 12 2zm0 3c1.66 0 3 1.34 3 3s-1.34 3-3 3-3-1.34-3-3 1.34-3 3-3zm0 14.2c-2.5 0-4.71-1.28-6-3.22.03-1.99 4-3.08 6-3.08 1.99 0 5.97 1.09 6 3.08-1.29 1.94-3.5 3.22-6 3.22z"/>
    </symbol>
</svg>