<svg xmlns="http://www.w3.org/2000/svg" name="symbols" size="16" icon="A">
    <symbol id="d0">
        <circle cx="8" cy="8" r="8" fill="red" stroke="white"/>
        <text font-size="11" y="9" x="8" fill="white">0</text>
    </symbol>
    <symbol id="d1">
        <circle cx="8" cy="8" r="8" fill="red" stroke="white"/>
        <text font-size="11" y="9" x="8" fill="white">1</text>
    </symbol>
    <symbol id="d2">
        <circle cx="8" cy="8" r="8" fill="red" stroke="white"/>
        <text font-size="11" y="9" x="8" fill="white">2</text>
    </symbol>
    <symbol id="d3">
        <circle cx="8" cy="8" r="8" fill="red" stroke="white"/>
        <text font-size="11" y="9" x="8" fill="white">3</text>
    </symbol>
    <symbol id="d4">
        <circle cx="8" cy="8" r="8" fill="red" stroke="white"/>
        <text font-size="11" y="9" x="8" fill="white">4</text>
    </symbol>
    <symbol id="d5">
        <circle cx="8" cy="8" r="8" fill="red" stroke="white"/>
        <text font-size="11" y="9" x="8" fill="white">5</text>
    </symbol>
    <symbol id="d6">
        <circle cx="8" cy="8" r="8" fill="red" stroke="white"/>
        <text font-size="11" y="9" x="8" fill="white">6</text>
    </symbol>
    <symbol id="d7">
        <circle cx="8" cy="8" r="8" fill="red" stroke="white"/>
        <text font-size="11" y="9" x="8" fill="white">7</text>
    </symbol>
    <symbol id="d8">
        <circle cx="8" cy="8" r="8" fill="red" stroke="white"/>
        <text font-size="11" y="9" x="8" fill="white">8</text>
    </symbol>
    <symbol id="d9">
        <circle cx="8" cy="8" r="8" fill="red" stroke="white"/>
        <text font-size="11" y="9" x="8" fill="white">9</text>
    </symbol>

    <symbol id="d9+">
        <circle cx="8" cy="8" r="8" fill="red" stroke="white"/>
        <text font-size="11" y="9" x="8" fill="white">9+</text>
    </symbol>

    <symbol id="A">
        <text font-size="14" y="9" x="8">A</text>
    </symbol>
    <symbol id="B">
        <text font-size="14" y="9" x="8">B</text>
    </symbol>
    <symbol id="C">
        <text font-size="14" y="9" x="8">C</text>
    </symbol>
    <symbol id="D">
        <text font-size="14" y="9" x="8">D</text>
    </symbol>
    <symbol id="E">
        <text font-size="14" y="9" x="8">E</text>
    </symbol>


    <symbol id="R">
        <text font-size="14" y="9" x="8">R</text>
    </symbol>
    <symbol id="T">
        <text font-size="14" y="9" x="8">T</text>
    </symbol>
    <symbol id="W">
        <text font-size="14" y="9" x="8">W</text>
    </symbol>
</svg>